<mxfile host="65bd71144e">
    <diagram name="Project 1" id="fwxXnzf6ZEVrYqUmG_S1">
        <mxGraphModel dx="566" dy="1627" grid="1" gridSize="10" guides="1" tooltips="1" connect="1" arrows="1" fold="1" page="1" pageScale="1" pageWidth="850" pageHeight="1100" math="0" shadow="0">
            <root>
                <mxCell id="0"/>
                <mxCell id="1" parent="0"/>
                <mxCell id="46" value="Entity&#10;&lt;&lt;abstract&gt;&gt;" style="swimlane;fontStyle=1;align=center;verticalAlign=top;childLayout=stackLayout;horizontal=1;startSize=40;horizontalStack=0;resizeParent=1;resizeParentMax=0;resizeLast=0;collapsible=1;marginBottom=0;fillColor=#008a00;fontColor=#ffffff;strokeColor=#005700;gradientColor=none;swimlaneFillColor=default;rounded=0;shadow=0;glass=0;swimlaneLine=1;" parent="1" vertex="1">
                    <mxGeometry x="4350" y="320" width="320" height="544" as="geometry"/>
                </mxCell>
                <mxCell id="47" value="+ ENTITY_NAME: string&#10;+ ENTITY_NUM_PROPERTIES: int&#10;&#10;+ PROPERTY_KEY: int&#10;+ PROPERTY_ID: int&#10;+ PROPERTY_COL: int&#10;+ PROPERTY_ROW: int&#10;&#10;- kind: EntityKind&#10;- id: String&#10;- position: Point&#10;- images: List&lt;PImage&gt;&#10;- imageIndex: int&#10;- resourceLimit: int&#10;- resourceCount: int&#10;- actionPeriod: double&#10;- animationPeriod: double&#10;- health: int&#10;- healthLimit: int" style="text;strokeColor=none;fillColor=none;align=left;verticalAlign=top;spacingLeft=4;spacingRight=4;overflow=hidden;rotatable=0;points=[[0,0.5],[1,0.5]];portConstraint=eastwest;glass=0;rounded=0;" parent="46" vertex="1">
                    <mxGeometry y="40" width="320" height="284" as="geometry"/>
                </mxCell>
                <mxCell id="48" value="" style="line;strokeWidth=1;fillColor=none;align=left;verticalAlign=middle;spacingTop=-1;spacingLeft=3;spacingRight=3;rotatable=0;labelPosition=right;points=[];portConstraint=eastwest;strokeColor=inherit;" parent="46" vertex="1">
                    <mxGeometry y="324" width="320" height="40" as="geometry"/>
                </mxCell>
                <mxCell id="49" value="+ getAnimationPeriod: double&#10;+ nextImage: void&#10;&#10;+ getOccupant: Optional&lt;Entity&gt;&#10;&#10;+ createAnimationAction: Action&#10;+ createActivityAction: Action&#10;&#10;+ createEntity: void&#10;+ parseEntity: void&#10;" style="text;strokeColor=none;fillColor=none;align=left;verticalAlign=top;spacingLeft=4;spacingRight=4;overflow=hidden;rotatable=0;points=[[0,0.5],[1,0.5]];portConstraint=eastwest;fontStyle=0" parent="46" vertex="1">
                    <mxGeometry y="364" width="320" height="180" as="geometry"/>
                </mxCell>
                <mxCell id="54" value="Action&#10;&lt;&lt;interface&gt;&gt;" style="swimlane;fontStyle=1;align=center;verticalAlign=top;childLayout=stackLayout;horizontal=1;startSize=40;horizontalStack=0;resizeParent=1;resizeParentMax=0;resizeLast=0;collapsible=1;marginBottom=0;fillColor=#008a00;fontColor=#ffffff;strokeColor=#005700;gradientColor=none;swimlaneFillColor=default;rounded=0;shadow=0;glass=0;swimlaneLine=1;" parent="1" vertex="1">
                    <mxGeometry x="4390" y="1804" width="240" height="136" as="geometry"/>
                </mxCell>
                <mxCell id="55" value="." style="text;strokeColor=none;fillColor=none;align=left;verticalAlign=top;spacingLeft=4;spacingRight=4;overflow=hidden;rotatable=0;points=[[0,0.5],[1,0.5]];portConstraint=eastwest;glass=0;rounded=0;" parent="54" vertex="1">
                    <mxGeometry y="40" width="240" height="30" as="geometry"/>
                </mxCell>
                <mxCell id="56" value="" style="line;strokeWidth=1;fillColor=none;align=left;verticalAlign=middle;spacingTop=-1;spacingLeft=3;spacingRight=3;rotatable=0;labelPosition=right;points=[];portConstraint=eastwest;strokeColor=inherit;" parent="54" vertex="1">
                    <mxGeometry y="70" width="240" height="8" as="geometry"/>
                </mxCell>
                <mxCell id="57" value="+ executeAction(EventScheduler): void&#10;+ createAction(): Action" style="text;strokeColor=none;fillColor=none;align=left;verticalAlign=top;spacingLeft=4;spacingRight=4;overflow=hidden;rotatable=0;points=[[0,0.5],[1,0.5]];portConstraint=eastwest;" parent="54" vertex="1">
                    <mxGeometry y="78" width="240" height="58" as="geometry"/>
                </mxCell>
                <mxCell id="115" style="edgeStyle=none;html=1;endArrow=doubleBlock;endFill=1;" parent="1" source="59" target="107" edge="1">
                    <mxGeometry relative="1" as="geometry"/>
                </mxCell>
                <mxCell id="59" value="Activity" style="swimlane;fontStyle=1;align=center;verticalAlign=top;childLayout=stackLayout;horizontal=1;startSize=26;horizontalStack=0;resizeParent=1;resizeParentMax=0;resizeLast=0;collapsible=1;marginBottom=0;fillColor=#008a00;fontColor=#ffffff;strokeColor=#005700;gradientColor=none;swimlaneFillColor=default;rounded=0;shadow=0;glass=0;swimlaneLine=1;" parent="1" vertex="1">
                    <mxGeometry x="4045" y="1504" width="310" height="180" as="geometry"/>
                </mxCell>
                <mxCell id="60" value="- repeatCount: int&#10;- entity: Entity&#10;" style="text;strokeColor=none;fillColor=none;align=left;verticalAlign=top;spacingLeft=4;spacingRight=4;overflow=hidden;rotatable=0;points=[[0,0.5],[1,0.5]];portConstraint=eastwest;glass=0;rounded=0;" parent="59" vertex="1">
                    <mxGeometry y="26" width="310" height="64" as="geometry"/>
                </mxCell>
                <mxCell id="61" value="" style="line;strokeWidth=1;fillColor=none;align=left;verticalAlign=middle;spacingTop=-1;spacingLeft=3;spacingRight=3;rotatable=0;labelPosition=right;points=[];portConstraint=eastwest;strokeColor=inherit;" parent="59" vertex="1">
                    <mxGeometry y="90" width="310" height="8" as="geometry"/>
                </mxCell>
                <mxCell id="62" value="+ method(type): type&#10;- createActivityAction(Entity, world, imageStore): Action&#10;- executeActivityAction: void" style="text;strokeColor=none;fillColor=none;align=left;verticalAlign=top;spacingLeft=4;spacingRight=4;overflow=hidden;rotatable=0;points=[[0,0.5],[1,0.5]];portConstraint=eastwest;" parent="59" vertex="1">
                    <mxGeometry y="98" width="310" height="82" as="geometry"/>
                </mxCell>
                <mxCell id="160" style="edgeStyle=none;html=1;endArrow=doubleBlock;endFill=1;" parent="1" source="72" target="46" edge="1">
                    <mxGeometry relative="1" as="geometry">
                        <mxPoint x="4640" y="794" as="targetPoint"/>
                    </mxGeometry>
                </mxCell>
                <mxCell id="72" value="Dude&#10;&lt;&lt;abstract&gt;&gt;" style="swimlane;fontStyle=1;align=center;verticalAlign=top;childLayout=stackLayout;horizontal=1;startSize=40;horizontalStack=0;resizeParent=1;resizeParentMax=0;resizeLast=0;collapsible=1;marginBottom=0;fillColor=#008a00;fontColor=#ffffff;strokeColor=#005700;gradientColor=none;swimlaneFillColor=default;rounded=0;shadow=0;glass=0;swimlaneLine=1;" parent="1" vertex="1">
                    <mxGeometry x="4410" y="1037" width="200" height="284" as="geometry"/>
                </mxCell>
                <mxCell id="73" value="+ DUDE_KEY: string&#10;+ DUDE_ACTION_PERIOD: int&#10;+ DUDE_ANIMATION_PERIOD: int&#10;+ DUDE_LIMIT: int&#10;+ DUDE_NUM_PROPERTIES: int" style="text;strokeColor=none;fillColor=none;align=left;verticalAlign=top;spacingLeft=4;spacingRight=4;overflow=hidden;rotatable=0;points=[[0,0.5],[1,0.5]];portConstraint=eastwest;glass=0;rounded=0;" parent="72" vertex="1">
                    <mxGeometry y="40" width="200" height="104" as="geometry"/>
                </mxCell>
                <mxCell id="74" value="" style="line;strokeWidth=1;fillColor=none;align=left;verticalAlign=middle;spacingTop=-1;spacingLeft=3;spacingRight=3;rotatable=0;labelPosition=right;points=[];portConstraint=eastwest;strokeColor=inherit;" parent="72" vertex="1">
                    <mxGeometry y="144" width="200" height="8" as="geometry"/>
                </mxCell>
                <mxCell id="75" value="+ executeDudeNotFullActivity: void&#10;+ executeDudeFullActivity: void&#10;- Point nextPositionDude&#10;- parseDude: void&#10;- createDudeNotFull: Entity&#10;- createDudeFull: Entity&#10;" style="text;strokeColor=none;fillColor=none;align=left;verticalAlign=top;spacingLeft=4;spacingRight=4;overflow=hidden;rotatable=0;points=[[0,0.5],[1,0.5]];portConstraint=eastwest;" parent="72" vertex="1">
                    <mxGeometry y="152" width="200" height="132" as="geometry"/>
                </mxCell>
                <mxCell id="134" style="edgeStyle=none;html=1;endArrow=doubleBlock;endFill=1;" parent="1" source="76" target="46" edge="1">
                    <mxGeometry relative="1" as="geometry"/>
                </mxCell>
                <mxCell id="206" style="edgeStyle=none;html=1;endArrow=classic;endFill=1;" parent="1" source="76" target="59" edge="1">
                    <mxGeometry relative="1" as="geometry"/>
                </mxCell>
                <mxCell id="76" value="Sapling" style="swimlane;fontStyle=1;align=center;verticalAlign=top;childLayout=stackLayout;horizontal=1;startSize=26;horizontalStack=0;resizeParent=1;resizeParentMax=0;resizeLast=0;collapsible=1;marginBottom=0;fillColor=#008a00;fontColor=#ffffff;strokeColor=#005700;gradientColor=none;swimlaneFillColor=default;rounded=0;shadow=0;glass=0;swimlaneLine=1;" parent="1" vertex="1">
                    <mxGeometry x="5140" y="1033" width="200" height="240" as="geometry"/>
                </mxCell>
                <mxCell id="77" value="+ SAPLING_ACTION_ANIMATION_PERIOD: double&#10;+ SAPLING_HEALTH_LIMIT: int&#10;&#10;+ SAPLING_KEY: string&#10;+ SAPLING_HEALTH: int&#10;+ SAPLING_NUM_PROPERTIES: int" style="text;strokeColor=none;fillColor=none;align=left;verticalAlign=top;spacingLeft=4;spacingRight=4;overflow=hidden;rotatable=0;points=[[0,0.5],[1,0.5]];portConstraint=eastwest;glass=0;rounded=0;" parent="76" vertex="1">
                    <mxGeometry y="26" width="200" height="114" as="geometry"/>
                </mxCell>
                <mxCell id="78" value="" style="line;strokeWidth=1;fillColor=none;align=left;verticalAlign=middle;spacingTop=-1;spacingLeft=3;spacingRight=3;rotatable=0;labelPosition=right;points=[];portConstraint=eastwest;strokeColor=inherit;" parent="76" vertex="1">
                    <mxGeometry y="140" width="200" height="8" as="geometry"/>
                </mxCell>
                <mxCell id="79" value="+ executeSaplingActivity: void&#10;- transformSapling: boolean&#10;- parseSapling: void&#10;- createSapling: Entity" style="text;strokeColor=none;fillColor=none;align=left;verticalAlign=top;spacingLeft=4;spacingRight=4;overflow=hidden;rotatable=0;points=[[0,0.5],[1,0.5]];portConstraint=eastwest;" parent="76" vertex="1">
                    <mxGeometry y="148" width="200" height="92" as="geometry"/>
                </mxCell>
                <mxCell id="133" style="edgeStyle=none;html=1;endArrow=doubleBlock;endFill=1;" parent="1" source="80" target="46" edge="1">
                    <mxGeometry relative="1" as="geometry"/>
                </mxCell>
                <mxCell id="205" style="edgeStyle=none;html=1;endArrow=classic;endFill=1;" parent="1" source="80" target="59" edge="1">
                    <mxGeometry relative="1" as="geometry"/>
                </mxCell>
                <mxCell id="80" value="Tree" style="swimlane;fontStyle=1;align=center;verticalAlign=top;childLayout=stackLayout;horizontal=1;startSize=26;horizontalStack=0;resizeParent=1;resizeParentMax=0;resizeLast=0;collapsible=1;marginBottom=0;fillColor=#008a00;fontColor=#ffffff;strokeColor=#005700;gradientColor=none;swimlaneFillColor=default;rounded=0;shadow=0;glass=0;swimlaneLine=1;" parent="1" vertex="1">
                    <mxGeometry x="4890" y="1038" width="200" height="342" as="geometry"/>
                </mxCell>
                <mxCell id="81" value="+ TREE_KEY: string&#10;+ TREE_ANIMATION_PERIOD: int&#10;+ TREE_ACTION_PERIOD: int&#10;+ TREE_HEALTH: int&#10;+ TREE_NUM_PROPERTIES: int&#10;&#10;&#10;+ TREE_ANIMATION_MAX: double&#10;+ TREE_ANIMATION_MIN: double&#10;+ TREE_ACTION_MAX: double&#10;+ TREE_ACTION_MIN: double&#10;+ TREE_HEALTH_MAX: int&#10;+ TREE_HEALTH_MIN: int" style="text;strokeColor=none;fillColor=none;align=left;verticalAlign=top;spacingLeft=4;spacingRight=4;overflow=hidden;rotatable=0;points=[[0,0.5],[1,0.5]];portConstraint=eastwest;glass=0;rounded=0;" parent="80" vertex="1">
                    <mxGeometry y="26" width="200" height="214" as="geometry"/>
                </mxCell>
                <mxCell id="82" value="" style="line;strokeWidth=1;fillColor=none;align=left;verticalAlign=middle;spacingTop=-1;spacingLeft=3;spacingRight=3;rotatable=0;labelPosition=right;points=[];portConstraint=eastwest;strokeColor=inherit;" parent="80" vertex="1">
                    <mxGeometry y="240" width="200" height="8" as="geometry"/>
                </mxCell>
                <mxCell id="83" value="+ executeTreeActivity: void&#10;- transformTree: boolean&#10;- parseTree: void&#10;- createTree: Entity&#10;" style="text;strokeColor=none;fillColor=none;align=left;verticalAlign=top;spacingLeft=4;spacingRight=4;overflow=hidden;rotatable=0;points=[[0,0.5],[1,0.5]];portConstraint=eastwest;" parent="80" vertex="1">
                    <mxGeometry y="248" width="200" height="94" as="geometry"/>
                </mxCell>
                <mxCell id="189" style="edgeStyle=none;html=1;endArrow=doubleBlock;endFill=1;" parent="1" source="84" target="46" edge="1">
                    <mxGeometry relative="1" as="geometry"/>
                </mxCell>
                <mxCell id="84" value="Stump" style="swimlane;fontStyle=1;align=center;verticalAlign=top;childLayout=stackLayout;horizontal=1;startSize=26;horizontalStack=0;resizeParent=1;resizeParentMax=0;resizeLast=0;collapsible=1;marginBottom=0;fillColor=#008a00;fontColor=#ffffff;strokeColor=#005700;gradientColor=none;swimlaneFillColor=default;rounded=0;shadow=0;glass=0;swimlaneLine=1;" parent="1" vertex="1">
                    <mxGeometry x="3900" y="1034" width="200" height="148" as="geometry"/>
                </mxCell>
                <mxCell id="85" value="+ STUMP_KEY: string&#10;+ STUMP_NUM_PROPERTIES: int" style="text;strokeColor=none;fillColor=none;align=left;verticalAlign=top;spacingLeft=4;spacingRight=4;overflow=hidden;rotatable=0;points=[[0,0.5],[1,0.5]];portConstraint=eastwest;glass=0;rounded=0;" parent="84" vertex="1">
                    <mxGeometry y="26" width="200" height="54" as="geometry"/>
                </mxCell>
                <mxCell id="86" value="" style="line;strokeWidth=1;fillColor=none;align=left;verticalAlign=middle;spacingTop=-1;spacingLeft=3;spacingRight=3;rotatable=0;labelPosition=right;points=[];portConstraint=eastwest;strokeColor=inherit;" parent="84" vertex="1">
                    <mxGeometry y="80" width="200" height="8" as="geometry"/>
                </mxCell>
                <mxCell id="87" value="- parseStump: void&#10;- createStump: Entity&#10;" style="text;strokeColor=none;fillColor=none;align=left;verticalAlign=top;spacingLeft=4;spacingRight=4;overflow=hidden;rotatable=0;points=[[0,0.5],[1,0.5]];portConstraint=eastwest;" parent="84" vertex="1">
                    <mxGeometry y="88" width="200" height="60" as="geometry"/>
                </mxCell>
                <mxCell id="188" style="edgeStyle=none;html=1;endArrow=doubleBlock;endFill=1;" parent="1" source="88" target="46" edge="1">
                    <mxGeometry relative="1" as="geometry"/>
                </mxCell>
                <mxCell id="88" value="Obstacle" style="swimlane;fontStyle=1;align=center;verticalAlign=top;childLayout=stackLayout;horizontal=1;startSize=26;horizontalStack=0;resizeParent=1;resizeParentMax=0;resizeLast=0;collapsible=1;marginBottom=0;fillColor=#008a00;fontColor=#ffffff;strokeColor=#005700;gradientColor=none;swimlaneFillColor=default;rounded=0;shadow=0;glass=0;swimlaneLine=1;" parent="1" vertex="1">
                    <mxGeometry x="4140" y="1034" width="230" height="190" as="geometry"/>
                </mxCell>
                <mxCell id="89" value="+ OBSTACLE_KEY: string&#10;+ OBSTACLE_ANIMATION_PERIOD: int&#10;+ OBSTACLE_NUM_PROPERTIES: int" style="text;strokeColor=none;fillColor=none;align=left;verticalAlign=top;spacingLeft=4;spacingRight=4;overflow=hidden;rotatable=0;points=[[0,0.5],[1,0.5]];portConstraint=eastwest;glass=0;rounded=0;" parent="88" vertex="1">
                    <mxGeometry y="26" width="230" height="84" as="geometry"/>
                </mxCell>
                <mxCell id="90" value="" style="line;strokeWidth=1;fillColor=none;align=left;verticalAlign=middle;spacingTop=-1;spacingLeft=3;spacingRight=3;rotatable=0;labelPosition=right;points=[];portConstraint=eastwest;strokeColor=inherit;" parent="88" vertex="1">
                    <mxGeometry y="110" width="230" height="8" as="geometry"/>
                </mxCell>
                <mxCell id="91" value="- parseObstacle: void&#10;- createObstacle: Entity&#10;" style="text;strokeColor=none;fillColor=none;align=left;verticalAlign=top;spacingLeft=4;spacingRight=4;overflow=hidden;rotatable=0;points=[[0,0.5],[1,0.5]];portConstraint=eastwest;" parent="88" vertex="1">
                    <mxGeometry y="118" width="230" height="72" as="geometry"/>
                </mxCell>
                <mxCell id="159" style="edgeStyle=none;html=1;endArrow=doubleBlock;endFill=1;" parent="1" source="92" target="46" edge="1">
                    <mxGeometry relative="1" as="geometry"/>
                </mxCell>
                <mxCell id="204" style="edgeStyle=none;html=1;endArrow=classic;endFill=1;" parent="1" source="92" target="59" edge="1">
                    <mxGeometry relative="1" as="geometry"/>
                </mxCell>
                <mxCell id="92" value="Fairy" style="swimlane;fontStyle=1;align=center;verticalAlign=top;childLayout=stackLayout;horizontal=1;startSize=26;horizontalStack=0;resizeParent=1;resizeParentMax=0;resizeLast=0;collapsible=1;marginBottom=0;fillColor=#008a00;fontColor=#ffffff;strokeColor=#005700;gradientColor=none;swimlaneFillColor=default;rounded=0;shadow=0;glass=0;swimlaneLine=1;" parent="1" vertex="1">
                    <mxGeometry x="4650" y="1037" width="200" height="232" as="geometry"/>
                </mxCell>
                <mxCell id="93" value="+ FAIRY_KEY: string&#10;+ FAIRY_ANIMATION_PERIOD: int&#10;+ FAIRY_ACTION_PERIOD: int&#10;+ FAIRY_NUM_PROPERTIES: int" style="text;strokeColor=none;fillColor=none;align=left;verticalAlign=top;spacingLeft=4;spacingRight=4;overflow=hidden;rotatable=0;points=[[0,0.5],[1,0.5]];portConstraint=eastwest;glass=0;rounded=0;" parent="92" vertex="1">
                    <mxGeometry y="26" width="200" height="104" as="geometry"/>
                </mxCell>
                <mxCell id="94" value="" style="line;strokeWidth=1;fillColor=none;align=left;verticalAlign=middle;spacingTop=-1;spacingLeft=3;spacingRight=3;rotatable=0;labelPosition=right;points=[];portConstraint=eastwest;strokeColor=inherit;" parent="92" vertex="1">
                    <mxGeometry y="130" width="200" height="8" as="geometry"/>
                </mxCell>
                <mxCell id="95" value="+ executeFairyActivity: void&#10;- moveToFairy: boolean&#10;- Point nextPositionFairy&#10;- parseFairy: void&#10;- createFairy: Entity&#10;" style="text;strokeColor=none;fillColor=none;align=left;verticalAlign=top;spacingLeft=4;spacingRight=4;overflow=hidden;rotatable=0;points=[[0,0.5],[1,0.5]];portConstraint=eastwest;" parent="92" vertex="1">
                    <mxGeometry y="138" width="200" height="94" as="geometry"/>
                </mxCell>
                <mxCell id="190" style="edgeStyle=none;html=1;endArrow=doubleBlock;endFill=1;" parent="1" source="96" target="46" edge="1">
                    <mxGeometry relative="1" as="geometry">
                        <mxPoint x="4010" y="834" as="targetPoint"/>
                    </mxGeometry>
                </mxCell>
                <mxCell id="96" value="House" style="swimlane;fontStyle=1;align=center;verticalAlign=top;childLayout=stackLayout;horizontal=1;startSize=26;horizontalStack=0;resizeParent=1;resizeParentMax=0;resizeLast=0;collapsible=1;marginBottom=0;fillColor=#008a00;fontColor=#ffffff;strokeColor=#005700;gradientColor=none;swimlaneFillColor=default;rounded=0;shadow=0;glass=0;swimlaneLine=1;" parent="1" vertex="1">
                    <mxGeometry x="3660" y="1035" width="210" height="148" as="geometry"/>
                </mxCell>
                <mxCell id="97" value="+ HOUSE_KEY: string&#10;+ HOUSE_NUM_PROPERTIES: int&#10;" style="text;strokeColor=none;fillColor=none;align=left;verticalAlign=top;spacingLeft=4;spacingRight=4;overflow=hidden;rotatable=0;points=[[0,0.5],[1,0.5]];portConstraint=eastwest;glass=0;rounded=0;" parent="96" vertex="1">
                    <mxGeometry y="26" width="210" height="54" as="geometry"/>
                </mxCell>
                <mxCell id="98" value="" style="line;strokeWidth=1;fillColor=none;align=left;verticalAlign=middle;spacingTop=-1;spacingLeft=3;spacingRight=3;rotatable=0;labelPosition=right;points=[];portConstraint=eastwest;strokeColor=inherit;" parent="96" vertex="1">
                    <mxGeometry y="80" width="210" height="8" as="geometry"/>
                </mxCell>
                <mxCell id="99" value="- parseHouse: void&#10;- createHouse: Entity&#10;" style="text;strokeColor=none;fillColor=none;align=left;verticalAlign=top;spacingLeft=4;spacingRight=4;overflow=hidden;rotatable=0;points=[[0,0.5],[1,0.5]];portConstraint=eastwest;" parent="96" vertex="1">
                    <mxGeometry y="88" width="210" height="60" as="geometry"/>
                </mxCell>
                <mxCell id="117" style="edgeStyle=none;html=1;" parent="1" source="107" target="54" edge="1">
                    <mxGeometry relative="1" as="geometry"/>
                </mxCell>
                <mxCell id="107" value="EntityAction&#10;&lt;&lt;abstract&gt;&gt;" style="swimlane;fontStyle=1;align=center;verticalAlign=top;childLayout=stackLayout;horizontal=1;startSize=40;horizontalStack=0;resizeParent=1;resizeParentMax=0;resizeLast=0;collapsible=1;marginBottom=0;fillColor=#008a00;fontColor=#ffffff;strokeColor=#005700;gradientColor=none;swimlaneFillColor=default;rounded=0;shadow=0;glass=0;swimlaneLine=1;" parent="1" vertex="1">
                    <mxGeometry x="4410" y="1364" width="200" height="390" as="geometry"/>
                </mxCell>
                <mxCell id="108" value="." style="text;strokeColor=none;fillColor=none;align=left;verticalAlign=top;spacingLeft=4;spacingRight=4;overflow=hidden;rotatable=0;points=[[0,0.5],[1,0.5]];portConstraint=eastwest;glass=0;rounded=0;" parent="107" vertex="1">
                    <mxGeometry y="40" width="200" height="20" as="geometry"/>
                </mxCell>
                <mxCell id="109" value="" style="line;strokeWidth=1;fillColor=none;align=left;verticalAlign=middle;spacingTop=-1;spacingLeft=3;spacingRight=3;rotatable=0;labelPosition=right;points=[];portConstraint=eastwest;strokeColor=inherit;" parent="107" vertex="1">
                    <mxGeometry y="60" width="200" height="8" as="geometry"/>
                </mxCell>
                <mxCell id="110" value="+ method(type): type&#10;- createActivityAction(...): Action&#10;- executeActivityAction: void&#10;&#10;+ scheduleActions: void&#10;&#10;- transformNotFull: boolean&#10;- transformFull: void&#10;- transformPlant: boolean&#10;&#10;- moveToNotFull: boolean&#10;- moveToFull: boolean&#10;&#10;- tryAddEntity: void&#10;&#10;- nearestEntity: Optional&lt;Entity&gt;&#10;- findNearest: Optional&lt;Entity&gt;&#10;&#10;+ addEntity: void&#10;+ removeEntity: void&#10;- removeEntityAt: void" style="text;strokeColor=none;fillColor=none;align=left;verticalAlign=top;spacingLeft=4;spacingRight=4;overflow=hidden;rotatable=0;points=[[0,0.5],[1,0.5]];portConstraint=eastwest;" parent="107" vertex="1">
                    <mxGeometry y="68" width="200" height="322" as="geometry"/>
                </mxCell>
                <mxCell id="174" style="edgeStyle=none;html=1;endArrow=doubleBlock;endFill=1;" parent="1" source="166" target="72" edge="1">
                    <mxGeometry relative="1" as="geometry"/>
                </mxCell>
                <mxCell id="202" style="edgeStyle=none;html=1;endArrow=classic;endFill=1;" parent="1" source="166" target="59" edge="1">
                    <mxGeometry relative="1" as="geometry"/>
                </mxCell>
                <mxCell id="166" value="DudeFull" style="swimlane;fontStyle=1;align=center;verticalAlign=top;childLayout=stackLayout;horizontal=1;startSize=26;horizontalStack=0;resizeParent=1;resizeParentMax=0;resizeLast=0;collapsible=1;marginBottom=0;fillColor=#008a00;fontColor=#ffffff;strokeColor=#005700;gradientColor=none;swimlaneFillColor=default;rounded=0;shadow=0;glass=0;swimlaneLine=1;" parent="1" vertex="1">
                    <mxGeometry x="4155" y="1316" width="200" height="160" as="geometry"/>
                </mxCell>
                <mxCell id="167" value="." style="text;strokeColor=none;fillColor=none;align=left;verticalAlign=top;spacingLeft=4;spacingRight=4;overflow=hidden;rotatable=0;points=[[0,0.5],[1,0.5]];portConstraint=eastwest;glass=0;rounded=0;" parent="166" vertex="1">
                    <mxGeometry y="26" width="200" height="44" as="geometry"/>
                </mxCell>
                <mxCell id="168" value="" style="line;strokeWidth=1;fillColor=none;align=left;verticalAlign=middle;spacingTop=-1;spacingLeft=3;spacingRight=3;rotatable=0;labelPosition=right;points=[];portConstraint=eastwest;strokeColor=inherit;" parent="166" vertex="1">
                    <mxGeometry y="70" width="200" height="8" as="geometry"/>
                </mxCell>
                <mxCell id="169" value="+ executeDudeFullActivity: void&#10;- createDudeFull: Entity&#10;" style="text;strokeColor=none;fillColor=none;align=left;verticalAlign=top;spacingLeft=4;spacingRight=4;overflow=hidden;rotatable=0;points=[[0,0.5],[1,0.5]];portConstraint=eastwest;" parent="166" vertex="1">
                    <mxGeometry y="78" width="200" height="82" as="geometry"/>
                </mxCell>
                <mxCell id="175" style="edgeStyle=none;html=1;endArrow=doubleBlock;endFill=1;" parent="1" source="170" target="72" edge="1">
                    <mxGeometry relative="1" as="geometry"/>
                </mxCell>
                <mxCell id="203" style="edgeStyle=none;html=1;endArrow=classic;endFill=1;" parent="1" source="170" target="59" edge="1">
                    <mxGeometry relative="1" as="geometry"/>
                </mxCell>
                <mxCell id="170" value="DudeNotFull" style="swimlane;fontStyle=1;align=center;verticalAlign=top;childLayout=stackLayout;horizontal=1;startSize=26;horizontalStack=0;resizeParent=1;resizeParentMax=0;resizeLast=0;collapsible=1;marginBottom=0;fillColor=#008a00;fontColor=#ffffff;strokeColor=#005700;gradientColor=none;swimlaneFillColor=default;rounded=0;shadow=0;glass=0;swimlaneLine=1;" parent="1" vertex="1">
                    <mxGeometry x="4650" y="1321" width="200" height="150" as="geometry"/>
                </mxCell>
                <mxCell id="171" value="." style="text;strokeColor=none;fillColor=none;align=left;verticalAlign=top;spacingLeft=4;spacingRight=4;overflow=hidden;rotatable=0;points=[[0,0.5],[1,0.5]];portConstraint=eastwest;glass=0;rounded=0;" parent="170" vertex="1">
                    <mxGeometry y="26" width="200" height="44" as="geometry"/>
                </mxCell>
                <mxCell id="172" value="" style="line;strokeWidth=1;fillColor=none;align=left;verticalAlign=middle;spacingTop=-1;spacingLeft=3;spacingRight=3;rotatable=0;labelPosition=right;points=[];portConstraint=eastwest;strokeColor=inherit;" parent="170" vertex="1">
                    <mxGeometry y="70" width="200" height="8" as="geometry"/>
                </mxCell>
                <mxCell id="173" value="+ executeDudeNotFullActivity: void&#10;- createDudeNotFull: Entity&#10;" style="text;strokeColor=none;fillColor=none;align=left;verticalAlign=top;spacingLeft=4;spacingRight=4;overflow=hidden;rotatable=0;points=[[0,0.5],[1,0.5]];portConstraint=eastwest;" parent="170" vertex="1">
                    <mxGeometry y="78" width="200" height="72" as="geometry"/>
                </mxCell>
                <mxCell id="185" style="edgeStyle=none;html=1;dashed=1;" parent="1" source="62" target="54" edge="1">
                    <mxGeometry relative="1" as="geometry"/>
                </mxCell>
                <mxCell id="199" style="edgeStyle=none;html=1;endArrow=doubleBlock;endFill=1;" parent="1" source="195" target="107" edge="1">
                    <mxGeometry relative="1" as="geometry"/>
                </mxCell>
                <mxCell id="200" style="edgeStyle=none;html=1;endArrow=classic;endFill=1;dashed=1;" parent="1" source="195" target="54" edge="1">
                    <mxGeometry relative="1" as="geometry"/>
                </mxCell>
                <mxCell id="195" value="Animation" style="swimlane;fontStyle=1;align=center;verticalAlign=top;childLayout=stackLayout;horizontal=1;startSize=30;horizontalStack=0;resizeParent=1;resizeParentMax=0;resizeLast=0;collapsible=1;marginBottom=0;fillColor=#008a00;fontColor=#ffffff;strokeColor=#005700;gradientColor=none;swimlaneFillColor=default;rounded=0;shadow=0;glass=0;swimlaneLine=1;" parent="1" vertex="1">
                    <mxGeometry x="4650" y="1512" width="310" height="180" as="geometry"/>
                </mxCell>
                <mxCell id="196" value="- entity: Entity&#10;- world: WorldModel&#10;- imageStore: imageStore" style="text;strokeColor=none;fillColor=none;align=left;verticalAlign=top;spacingLeft=4;spacingRight=4;overflow=hidden;rotatable=0;points=[[0,0.5],[1,0.5]];portConstraint=eastwest;glass=0;rounded=0;" parent="195" vertex="1">
                    <mxGeometry y="30" width="310" height="60" as="geometry"/>
                </mxCell>
                <mxCell id="197" value="" style="line;strokeWidth=1;fillColor=none;align=left;verticalAlign=middle;spacingTop=-1;spacingLeft=3;spacingRight=3;rotatable=0;labelPosition=right;points=[];portConstraint=eastwest;strokeColor=inherit;" parent="195" vertex="1">
                    <mxGeometry y="90" width="310" height="8" as="geometry"/>
                </mxCell>
                <mxCell id="198" value="+ method(type): type&#10;- createAnimationAction(Entity, repeatCount): Action&#10;- executeAnimationAction: void&#10;+ getAnimationPeriod: double" style="text;strokeColor=none;fillColor=none;align=left;verticalAlign=top;spacingLeft=4;spacingRight=4;overflow=hidden;rotatable=0;points=[[0,0.5],[1,0.5]];portConstraint=eastwest;" parent="195" vertex="1">
                    <mxGeometry y="98" width="310" height="82" as="geometry"/>
                </mxCell>
                <mxCell id="207" value="Entity&#10;&lt;&lt;abstract&gt;&gt;" style="swimlane;fontStyle=1;align=center;verticalAlign=top;childLayout=stackLayout;horizontal=1;startSize=40;horizontalStack=0;resizeParent=1;resizeParentMax=0;resizeLast=0;collapsible=1;marginBottom=0;fillColor=#008a00;fontColor=#ffffff;strokeColor=#005700;gradientColor=none;swimlaneFillColor=default;rounded=0;shadow=0;glass=0;swimlaneLine=1;" parent="1" vertex="1">
                    <mxGeometry x="2020" y="-1030" width="320" height="1940" as="geometry"/>
                </mxCell>
                <mxCell id="208" value="+ ENTITY_NAME: string&#10;+ ENTITY_NUM_PROPERTIES: int&#10;&#10;+ PROPERTY_KEY: int&#10;+ PROPERTY_ID: int&#10;+ PROPERTY_COL: int&#10;+ PROPERTY_ROW: int&#10;&#10;+ DUDE_KEY: string&#10;+ DUDE_ACTION_PERIOD: int&#10;+ DUDE_ANIMATION_PERIOD: int&#10;+ DUDE_LIMIT: int&#10;+ DUDE_NUM_PROPERTIES: int&#10;&#10;+ FAIRY_KEY: string&#10;+ FAIRY_ANIMATION_PERIOD: int&#10;+ FAIRY_ACTION_PERIOD: int&#10;+ FAIRY_NUM_PROPERTIES: int&#10;&#10;+ TREE_KEY: string&#10;+ TREE_ANIMATION_PERIOD: int&#10;+ TREE_ACTION_PERIOD: int&#10;+ TREE_HEALTH: int&#10;+ TREE_NUM_PROPERTIES: int&#10;&#10;&#10;+ TREE_ANIMATION_MAX: double&#10;+ TREE_ANIMATION_MIN: double&#10;+ TREE_ACTION_MAX: double&#10;+ TREE_ACTION_MIN: double&#10;+ TREE_HEALTH_MAX: int&#10;+ TREE_HEALTH_MIN: int&#10;&#10;+ SAPLING_ACTION_ANIMATION_PERIOD: double&#10;+ SAPLING_HEALTH_LIMIT: int&#10;&#10;+ SAPLING_KEY: string&#10;+ SAPLING_HEALTH: int&#10;+ SAPLING_NUM_PROPERTIES: int&#10;&#10;+ OBSTACLE_KEY: string&#10;+ OBSTACLE_ANIMATION_PERIOD: int&#10;+ OBSTACLE_NUM_PROPERTIES: int&#10;&#10;+ HOUSE_KEY: string&#10;+ HOUSE_NUM_PROPERTIES: int&#10;&#10;+ STUMP_KEY: string&#10;+ STUMP_NUM_PROPERTIES: int&#10;&#10;- id: String&#10;- position: Point&#10;- images: List&lt;PImage&gt;&#10;- imageIndex: int&#10;- actionPeriod: double&#10;- animationPeriod: double&#10;" style="text;strokeColor=none;fillColor=none;align=left;verticalAlign=top;spacingLeft=4;spacingRight=4;overflow=hidden;rotatable=0;points=[[0,0.5],[1,0.5]];portConstraint=eastwest;glass=0;rounded=0;" parent="207" vertex="1">
                    <mxGeometry y="40" width="320" height="800" as="geometry"/>
                </mxCell>
                <mxCell id="209" value="" style="line;strokeWidth=1;fillColor=none;align=left;verticalAlign=middle;spacingTop=-1;spacingLeft=3;spacingRight=3;rotatable=0;labelPosition=right;points=[];portConstraint=eastwest;strokeColor=inherit;" parent="207" vertex="1">
                    <mxGeometry y="840" width="320" height="40" as="geometry"/>
                </mxCell>
                <mxCell id="210" value="+ getENTITY_NAME: string&#10;+ getENTITY_NUM_PROPERTIES: int&#10;&#10;+ getPROPERTY_KEY: int&#10;+ getPROPERTY_ID: int&#10;+ getPROPERTY_COL: int&#10;+ getPROPERTY_ROW: int&#10;&#10;+ getDUDE_KEY: string&#10;+ getDUDE_ACTION_PERIOD: int&#10;+ getDUDE_ANIMATION_PERIOD: int&#10;+ getDUDE_LIMIT: int&#10;+ getDUDE_NUM_PROPERTIES: int&#10;&#10;+ getFAIRY_KEY: string&#10;+ getFAIRY_ANIMATION_PERIOD: int&#10;+ getFAIRY_ACTION_PERIOD: int&#10;+ getFAIRY_NUM_PROPERTIES: int&#10;&#10;+ getTREE_KEY: string&#10;+ getTREE_ANIMATION_PERIOD: int&#10;+ getTREE_ACTION_PERIOD: int&#10;+ getTREE_HEALTH: int&#10;+ getTREE_NUM_PROPERTIES: int&#10;&#10;&#10;+ getTREE_ANIMATION_MAX: double&#10;+ getTREE_ANIMATION_MIN: double&#10;+ getTREE_ACTION_MAX: double&#10;+ getTREE_ACTION_MIN: double&#10;+ getTREE_HEALTH_MAX: int&#10;+ getTREE_HEALTH_MIN: int&#10;&#10;+ getSAPLING_ACTION_ANIMATION_PERIOD: double&#10;+ getSAPLING_HEALTH_LIMIT: int&#10;&#10;+ getSAPLING_KEY: string&#10;+ getSAPLING_HEALTH: int&#10;+ getSAPLING_NUM_PROPERTIES: int&#10;&#10;+ getOBSTACLE_KEY: string&#10;+ getOBSTACLE_ANIMATION_PERIOD: int&#10;+ getOBSTACLE_NUM_PROPERTIES: int&#10;&#10;+ getHOUSE_KEY: string&#10;+ getHOUSE_NUM_PROPERTIES: int&#10;&#10;+ getSTUMP_KEY: string&#10;+ getSTUMP_NUM_PROPERTIES: int&#10;&#10;+ getid: String&#10;+ getPosition: Point&#10;+ setPosition: void&#10;+ getimages: List&lt;PImage&gt;&#10;+ getimageIndex: int&#10;+ getactionPeriod: double&#10;+ getAnimationPeriod: double&#10;+ getImages: List&lt;PImage&gt;&#10;+ getImageIndex: int&#10;+ getActionPeriod: double&#10;+ getAnimationPeriod: double&#10;&#10;+ nextImage: void&#10;+ parseEntity: void&#10;+ getOccupant: Optional&lt;Entity&gt;&#10;+ removeEntityAt: void&#10;+ removeEntity: void&#10;# addEntity: void&#10;# findNearest: Optional&lt;Entity&gt;&#10;- nearestEntity: Optional&lt;Entity&gt;&#10;+ tryAddEntity: void&#10;+ createAnimationAction: Action&#10;+ createActivityAction: Action&#10;+ parseEntity: void&#10;" style="text;strokeColor=none;fillColor=none;align=left;verticalAlign=top;spacingLeft=4;spacingRight=4;overflow=hidden;rotatable=0;points=[[0,0.5],[1,0.5]];portConstraint=eastwest;fontStyle=0" parent="207" vertex="1">
                    <mxGeometry y="880" width="320" height="1060" as="geometry"/>
                </mxCell>
                <mxCell id="211" style="edgeStyle=none;html=1;endArrow=doubleBlock;endFill=1;" parent="1" source="299" target="267" edge="1">
                    <mxGeometry relative="1" as="geometry">
                        <mxPoint x="1980" y="870" as="targetPoint"/>
                        <mxPoint x="2030.586319218241" y="1243" as="sourcePoint"/>
                    </mxGeometry>
                </mxCell>
                <mxCell id="217" style="edgeStyle=none;html=1;endArrow=doubleBlock;endFill=1;" parent="1" source="219" target="267" edge="1">
                    <mxGeometry relative="1" as="geometry"/>
                </mxCell>
                <mxCell id="218" style="edgeStyle=none;html=1;dashed=1;endArrow=classic;endFill=1;" parent="1" source="219" target="263" edge="1">
                    <mxGeometry relative="1" as="geometry"/>
                </mxCell>
                <mxCell id="219" value="Sapling" style="swimlane;fontStyle=1;align=center;verticalAlign=top;childLayout=stackLayout;horizontal=1;startSize=26;horizontalStack=0;resizeParent=1;resizeParentMax=0;resizeLast=0;collapsible=1;marginBottom=0;fillColor=#008a00;fontColor=#ffffff;strokeColor=#005700;gradientColor=none;swimlaneFillColor=default;rounded=0;shadow=0;glass=0;swimlaneLine=1;" parent="1" vertex="1">
                    <mxGeometry x="2595" y="1237" width="300" height="260" as="geometry"/>
                </mxCell>
                <mxCell id="220" value="- healthLimit: int" style="text;strokeColor=none;fillColor=none;align=left;verticalAlign=top;spacingLeft=4;spacingRight=4;overflow=hidden;rotatable=0;points=[[0,0.5],[1,0.5]];portConstraint=eastwest;glass=0;rounded=0;" parent="219" vertex="1">
                    <mxGeometry y="26" width="300" height="54" as="geometry"/>
                </mxCell>
                <mxCell id="221" value="" style="line;strokeWidth=1;fillColor=none;align=left;verticalAlign=middle;spacingTop=-1;spacingLeft=3;spacingRight=3;rotatable=0;labelPosition=right;points=[];portConstraint=eastwest;strokeColor=inherit;" parent="219" vertex="1">
                    <mxGeometry y="80" width="300" height="8" as="geometry"/>
                </mxCell>
                <mxCell id="222" value="+ getHealthLimit: int&#10;+ executeActivityAction: void&#10;+ transform: boolean&#10;+ parseSapling: void&#10;+ scheduleActions: void" style="text;strokeColor=none;fillColor=none;align=left;verticalAlign=top;spacingLeft=4;spacingRight=4;overflow=hidden;rotatable=0;points=[[0,0.5],[1,0.5]];portConstraint=eastwest;" parent="219" vertex="1">
                    <mxGeometry y="88" width="300" height="172" as="geometry"/>
                </mxCell>
                <mxCell id="223" style="edgeStyle=none;html=1;endArrow=doubleBlock;endFill=1;" parent="1" source="225" target="267" edge="1">
                    <mxGeometry relative="1" as="geometry">
                        <mxPoint x="2420" y="750" as="targetPoint"/>
                    </mxGeometry>
                </mxCell>
                <mxCell id="224" style="edgeStyle=none;html=1;dashed=1;endArrow=classic;endFill=1;" parent="1" source="225" target="263" edge="1">
                    <mxGeometry relative="1" as="geometry"/>
                </mxCell>
                <mxCell id="225" value="Tree" style="swimlane;fontStyle=1;align=center;verticalAlign=top;childLayout=stackLayout;horizontal=1;startSize=26;horizontalStack=0;resizeParent=1;resizeParentMax=0;resizeLast=0;collapsible=1;marginBottom=0;fillColor=#008a00;fontColor=#ffffff;strokeColor=#005700;gradientColor=none;swimlaneFillColor=default;rounded=0;shadow=0;glass=0;swimlaneLine=1;" parent="1" vertex="1">
                    <mxGeometry x="2355" y="1243" width="200" height="210" as="geometry"/>
                </mxCell>
                <mxCell id="226" value="." style="text;strokeColor=none;fillColor=none;align=left;verticalAlign=top;spacingLeft=4;spacingRight=4;overflow=hidden;rotatable=0;points=[[0,0.5],[1,0.5]];portConstraint=eastwest;glass=0;rounded=0;" parent="225" vertex="1">
                    <mxGeometry y="26" width="200" height="54" as="geometry"/>
                </mxCell>
                <mxCell id="227" value="" style="line;strokeWidth=1;fillColor=none;align=left;verticalAlign=middle;spacingTop=-1;spacingLeft=3;spacingRight=3;rotatable=0;labelPosition=right;points=[];portConstraint=eastwest;strokeColor=inherit;" parent="225" vertex="1">
                    <mxGeometry y="80" width="200" height="8" as="geometry"/>
                </mxCell>
                <mxCell id="228" value="+ executeActivityAction: void&#10;+ transform: boolean&#10;+ parseTree: void&#10;+ scheduleActions: void" style="text;strokeColor=none;fillColor=none;align=left;verticalAlign=top;spacingLeft=4;spacingRight=4;overflow=hidden;rotatable=0;points=[[0,0.5],[1,0.5]];portConstraint=eastwest;" parent="225" vertex="1">
                    <mxGeometry y="88" width="200" height="122" as="geometry"/>
                </mxCell>
                <mxCell id="229" style="edgeStyle=none;html=1;endArrow=doubleBlock;endFill=1;" parent="1" source="231" target="207" edge="1">
                    <mxGeometry relative="1" as="geometry"/>
                </mxCell>
                <mxCell id="231" value="Stump" style="swimlane;fontStyle=1;align=center;verticalAlign=top;childLayout=stackLayout;horizontal=1;startSize=26;horizontalStack=0;resizeParent=1;resizeParentMax=0;resizeLast=0;collapsible=1;marginBottom=0;fillColor=#008a00;fontColor=#ffffff;strokeColor=#005700;gradientColor=none;swimlaneFillColor=default;rounded=0;shadow=0;glass=0;swimlaneLine=1;" parent="1" vertex="1">
                    <mxGeometry x="1640" y="800" width="200" height="148" as="geometry"/>
                </mxCell>
                <mxCell id="232" value="." style="text;strokeColor=none;fillColor=none;align=left;verticalAlign=top;spacingLeft=4;spacingRight=4;overflow=hidden;rotatable=0;points=[[0,0.5],[1,0.5]];portConstraint=eastwest;glass=0;rounded=0;" parent="231" vertex="1">
                    <mxGeometry y="26" width="200" height="54" as="geometry"/>
                </mxCell>
                <mxCell id="233" value="" style="line;strokeWidth=1;fillColor=none;align=left;verticalAlign=middle;spacingTop=-1;spacingLeft=3;spacingRight=3;rotatable=0;labelPosition=right;points=[];portConstraint=eastwest;strokeColor=inherit;" parent="231" vertex="1">
                    <mxGeometry y="80" width="200" height="8" as="geometry"/>
                </mxCell>
                <mxCell id="234" value="- parseStump: void" style="text;strokeColor=none;fillColor=none;align=left;verticalAlign=top;spacingLeft=4;spacingRight=4;overflow=hidden;rotatable=0;points=[[0,0.5],[1,0.5]];portConstraint=eastwest;" parent="231" vertex="1">
                    <mxGeometry y="88" width="200" height="60" as="geometry"/>
                </mxCell>
                <mxCell id="235" style="edgeStyle=none;html=1;endArrow=doubleBlock;endFill=1;" parent="1" source="237" target="294" edge="1">
                    <mxGeometry relative="1" as="geometry"/>
                </mxCell>
                <mxCell id="237" value="Obstacle" style="swimlane;fontStyle=1;align=center;verticalAlign=top;childLayout=stackLayout;horizontal=1;startSize=26;horizontalStack=0;resizeParent=1;resizeParentMax=0;resizeLast=0;collapsible=1;marginBottom=0;fillColor=#008a00;fontColor=#ffffff;strokeColor=#005700;gradientColor=none;swimlaneFillColor=default;rounded=0;shadow=0;glass=0;swimlaneLine=1;" parent="1" vertex="1">
                    <mxGeometry x="2870" y="500" width="230" height="140" as="geometry"/>
                </mxCell>
                <mxCell id="238" value="." style="text;strokeColor=none;fillColor=none;align=left;verticalAlign=top;spacingLeft=4;spacingRight=4;overflow=hidden;rotatable=0;points=[[0,0.5],[1,0.5]];portConstraint=eastwest;glass=0;rounded=0;" parent="237" vertex="1">
                    <mxGeometry y="26" width="230" height="44" as="geometry"/>
                </mxCell>
                <mxCell id="239" value="" style="line;strokeWidth=1;fillColor=none;align=left;verticalAlign=middle;spacingTop=-1;spacingLeft=3;spacingRight=3;rotatable=0;labelPosition=right;points=[];portConstraint=eastwest;strokeColor=inherit;" parent="237" vertex="1">
                    <mxGeometry y="70" width="230" height="8" as="geometry"/>
                </mxCell>
                <mxCell id="240" value="+ parseObstacle: void&#10;+ scheduleActions: void" style="text;strokeColor=none;fillColor=none;align=left;verticalAlign=top;spacingLeft=4;spacingRight=4;overflow=hidden;rotatable=0;points=[[0,0.5],[1,0.5]];portConstraint=eastwest;" parent="237" vertex="1">
                    <mxGeometry y="78" width="230" height="62" as="geometry"/>
                </mxCell>
                <mxCell id="241" style="edgeStyle=none;html=1;endArrow=doubleBlock;endFill=1;" parent="1" source="243" target="267" edge="1">
                    <mxGeometry relative="1" as="geometry">
                        <mxPoint x="2120" y="900" as="targetPoint"/>
                    </mxGeometry>
                </mxCell>
                <mxCell id="242" style="edgeStyle=none;html=1;dashed=1;endArrow=classic;endFill=1;" parent="1" source="243" target="263" edge="1">
                    <mxGeometry relative="1" as="geometry"/>
                </mxCell>
                <mxCell id="243" value="Fairy" style="swimlane;fontStyle=1;align=center;verticalAlign=top;childLayout=stackLayout;horizontal=1;startSize=26;horizontalStack=0;resizeParent=1;resizeParentMax=0;resizeLast=0;collapsible=1;marginBottom=0;fillColor=#008a00;fontColor=#ffffff;strokeColor=#005700;gradientColor=none;swimlaneFillColor=default;rounded=0;shadow=0;glass=0;swimlaneLine=1;" parent="1" vertex="1">
                    <mxGeometry x="2115" y="1239" width="200" height="172" as="geometry"/>
                </mxCell>
                <mxCell id="244" value=".&#10;" style="text;strokeColor=none;fillColor=none;align=left;verticalAlign=top;spacingLeft=4;spacingRight=4;overflow=hidden;rotatable=0;points=[[0,0.5],[1,0.5]];portConstraint=eastwest;glass=0;rounded=0;" parent="243" vertex="1">
                    <mxGeometry y="26" width="200" height="44" as="geometry"/>
                </mxCell>
                <mxCell id="245" value="" style="line;strokeWidth=1;fillColor=none;align=left;verticalAlign=middle;spacingTop=-1;spacingLeft=3;spacingRight=3;rotatable=0;labelPosition=right;points=[];portConstraint=eastwest;strokeColor=inherit;" parent="243" vertex="1">
                    <mxGeometry y="70" width="200" height="8" as="geometry"/>
                </mxCell>
                <mxCell id="246" value="+ executeActivityAction: void&#10;- moveToFairy: boolean&#10;- nextPositionFairy: Point&#10;- parseFairy: void&#10;+ scheduleActions: void" style="text;strokeColor=none;fillColor=none;align=left;verticalAlign=top;spacingLeft=4;spacingRight=4;overflow=hidden;rotatable=0;points=[[0,0.5],[1,0.5]];portConstraint=eastwest;" parent="243" vertex="1">
                    <mxGeometry y="78" width="200" height="94" as="geometry"/>
                </mxCell>
                <mxCell id="247" style="edgeStyle=none;html=1;endArrow=doubleBlock;endFill=1;" parent="1" source="249" target="207" edge="1">
                    <mxGeometry relative="1" as="geometry">
                        <mxPoint x="1530" y="770" as="targetPoint"/>
                    </mxGeometry>
                </mxCell>
                <mxCell id="249" value="House" style="swimlane;fontStyle=1;align=center;verticalAlign=top;childLayout=stackLayout;horizontal=1;startSize=26;horizontalStack=0;resizeParent=1;resizeParentMax=0;resizeLast=0;collapsible=1;marginBottom=0;fillColor=#008a00;fontColor=#ffffff;strokeColor=#005700;gradientColor=none;swimlaneFillColor=default;rounded=0;shadow=0;glass=0;swimlaneLine=1;" parent="1" vertex="1">
                    <mxGeometry x="1640" y="600" width="210" height="130" as="geometry"/>
                </mxCell>
                <mxCell id="250" value="." style="text;strokeColor=none;fillColor=none;align=left;verticalAlign=top;spacingLeft=4;spacingRight=4;overflow=hidden;rotatable=0;points=[[0,0.5],[1,0.5]];portConstraint=eastwest;glass=0;rounded=0;" parent="249" vertex="1">
                    <mxGeometry y="26" width="210" height="34" as="geometry"/>
                </mxCell>
                <mxCell id="251" value="" style="line;strokeWidth=1;fillColor=none;align=left;verticalAlign=middle;spacingTop=-1;spacingLeft=3;spacingRight=3;rotatable=0;labelPosition=right;points=[];portConstraint=eastwest;strokeColor=inherit;" parent="249" vertex="1">
                    <mxGeometry y="60" width="210" height="8" as="geometry"/>
                </mxCell>
                <mxCell id="252" value="- parseHouse: void" style="text;strokeColor=none;fillColor=none;align=left;verticalAlign=top;spacingLeft=4;spacingRight=4;overflow=hidden;rotatable=0;points=[[0,0.5],[1,0.5]];portConstraint=eastwest;" parent="249" vertex="1">
                    <mxGeometry y="68" width="210" height="62" as="geometry"/>
                </mxCell>
                <mxCell id="253" style="edgeStyle=none;html=1;endArrow=doubleBlock;endFill=1;" parent="1" source="254" target="299" edge="1">
                    <mxGeometry relative="1" as="geometry">
                        <mxPoint x="1870" y="1286.6296296296296" as="targetPoint"/>
                    </mxGeometry>
                </mxCell>
                <mxCell id="271" style="edgeStyle=none;html=1;dashed=1;" parent="1" source="254" target="263" edge="1">
                    <mxGeometry relative="1" as="geometry">
                        <mxPoint x="1900" y="840" as="targetPoint"/>
                    </mxGeometry>
                </mxCell>
                <mxCell id="254" value="DudeFull" style="swimlane;fontStyle=1;align=center;verticalAlign=top;childLayout=stackLayout;horizontal=1;startSize=26;horizontalStack=0;resizeParent=1;resizeParentMax=0;resizeLast=0;collapsible=1;marginBottom=0;fillColor=#008a00;fontColor=#ffffff;strokeColor=#005700;gradientColor=none;swimlaneFillColor=default;rounded=0;shadow=0;glass=0;swimlaneLine=1;" parent="1" vertex="1">
                    <mxGeometry x="1640" y="1023" width="200" height="160" as="geometry"/>
                </mxCell>
                <mxCell id="255" value="." style="text;strokeColor=none;fillColor=none;align=left;verticalAlign=top;spacingLeft=4;spacingRight=4;overflow=hidden;rotatable=0;points=[[0,0.5],[1,0.5]];portConstraint=eastwest;glass=0;rounded=0;" parent="254" vertex="1">
                    <mxGeometry y="26" width="200" height="44" as="geometry"/>
                </mxCell>
                <mxCell id="256" value="" style="line;strokeWidth=1;fillColor=none;align=left;verticalAlign=middle;spacingTop=-1;spacingLeft=3;spacingRight=3;rotatable=0;labelPosition=right;points=[];portConstraint=eastwest;strokeColor=inherit;" parent="254" vertex="1">
                    <mxGeometry y="70" width="200" height="8" as="geometry"/>
                </mxCell>
                <mxCell id="257" value="+ executeActivityAction: void&#10;- moveToFull: boolean&#10;+ transform: boolean&#10;+ scheduleActions: void" style="text;strokeColor=none;fillColor=none;align=left;verticalAlign=top;spacingLeft=4;spacingRight=4;overflow=hidden;rotatable=0;points=[[0,0.5],[1,0.5]];portConstraint=eastwest;" parent="254" vertex="1">
                    <mxGeometry y="78" width="200" height="82" as="geometry"/>
                </mxCell>
                <mxCell id="258" style="edgeStyle=none;html=1;endArrow=doubleBlock;endFill=1;" parent="1" source="259" target="299" edge="1">
                    <mxGeometry relative="1" as="geometry">
                        <mxPoint x="1941.5789473684208" y="1291" as="targetPoint"/>
                    </mxGeometry>
                </mxCell>
                <mxCell id="272" style="edgeStyle=none;html=1;dashed=1;" parent="1" source="259" target="263" edge="1">
                    <mxGeometry relative="1" as="geometry">
                        <mxPoint x="1750" y="677.9999796549479" as="targetPoint"/>
                    </mxGeometry>
                </mxCell>
                <mxCell id="259" value="DudeNotFull" style="swimlane;fontStyle=1;align=center;verticalAlign=top;childLayout=stackLayout;horizontal=1;startSize=26;horizontalStack=0;resizeParent=1;resizeParentMax=0;resizeLast=0;collapsible=1;marginBottom=0;fillColor=#008a00;fontColor=#ffffff;strokeColor=#005700;gradientColor=none;swimlaneFillColor=default;rounded=0;shadow=0;glass=0;swimlaneLine=1;" parent="1" vertex="1">
                    <mxGeometry x="1645" y="1230" width="200" height="150" as="geometry"/>
                </mxCell>
                <mxCell id="260" value="." style="text;strokeColor=none;fillColor=none;align=left;verticalAlign=top;spacingLeft=4;spacingRight=4;overflow=hidden;rotatable=0;points=[[0,0.5],[1,0.5]];portConstraint=eastwest;glass=0;rounded=0;" parent="259" vertex="1">
                    <mxGeometry y="26" width="200" height="44" as="geometry"/>
                </mxCell>
                <mxCell id="261" value="" style="line;strokeWidth=1;fillColor=none;align=left;verticalAlign=middle;spacingTop=-1;spacingLeft=3;spacingRight=3;rotatable=0;labelPosition=right;points=[];portConstraint=eastwest;strokeColor=inherit;" parent="259" vertex="1">
                    <mxGeometry y="70" width="200" height="8" as="geometry"/>
                </mxCell>
                <mxCell id="262" value="+ executeActivityAction: void&#10;- moveToNotFull: boolean&#10;+ transform: boolean&#10;+ scheduleActions: void" style="text;strokeColor=none;fillColor=none;align=left;verticalAlign=top;spacingLeft=4;spacingRight=4;overflow=hidden;rotatable=0;points=[[0,0.5],[1,0.5]];portConstraint=eastwest;" parent="259" vertex="1">
                    <mxGeometry y="78" width="200" height="72" as="geometry"/>
                </mxCell>
                <mxCell id="263" value="ActionInterface&#10;&lt;&lt;interface&gt;&gt;" style="swimlane;fontStyle=1;align=center;verticalAlign=top;childLayout=stackLayout;horizontal=1;startSize=40;horizontalStack=0;resizeParent=1;resizeParentMax=0;resizeLast=0;collapsible=1;marginBottom=0;fillColor=#008a00;fontColor=#ffffff;strokeColor=#005700;gradientColor=none;swimlaneFillColor=default;rounded=0;shadow=0;glass=0;swimlaneLine=1;" parent="1" vertex="1">
                    <mxGeometry x="2020" y="1033" width="310" height="90" as="geometry"/>
                </mxCell>
                <mxCell id="264" value="" style="line;strokeWidth=1;fillColor=none;align=left;verticalAlign=middle;spacingTop=-1;spacingLeft=3;spacingRight=3;rotatable=0;labelPosition=right;points=[];portConstraint=eastwest;strokeColor=inherit;" parent="263" vertex="1">
                    <mxGeometry y="40" width="310" height="8" as="geometry"/>
                </mxCell>
                <mxCell id="265" value="+ transform(): bool&#10;" style="text;strokeColor=none;fillColor=none;align=left;verticalAlign=top;spacingLeft=4;spacingRight=4;overflow=hidden;rotatable=0;points=[[0,0.5],[1,0.5]];portConstraint=eastwest;" parent="263" vertex="1">
                    <mxGeometry y="48" width="310" height="42" as="geometry"/>
                </mxCell>
                <mxCell id="266" style="edgeStyle=none;html=1;endArrow=doubleBlock;endFill=1;startArrow=none;" parent="1" source="294" target="207" edge="1">
                    <mxGeometry relative="1" as="geometry"/>
                </mxCell>
                <mxCell id="303" style="edgeStyle=none;html=1;dashed=1;" parent="1" source="267" target="263" edge="1">
                    <mxGeometry relative="1" as="geometry"/>
                </mxCell>
                <mxCell id="267" value="Wiggler&#10;&lt;&lt;abstract&gt;&gt;" style="swimlane;fontStyle=1;align=center;verticalAlign=top;childLayout=stackLayout;horizontal=1;startSize=40;horizontalStack=0;resizeParent=1;resizeParentMax=0;resizeLast=0;collapsible=1;marginBottom=0;fillColor=#008a00;fontColor=#ffffff;strokeColor=#005700;gradientColor=none;swimlaneFillColor=default;rounded=0;shadow=0;glass=0;swimlaneLine=1;" parent="1" vertex="1">
                    <mxGeometry x="2595" y="940" width="300" height="240" as="geometry"/>
                </mxCell>
                <mxCell id="268" value="- actionPeriod: double&#10;- animationPeriod: double" style="text;strokeColor=none;fillColor=none;align=left;verticalAlign=top;spacingLeft=4;spacingRight=4;overflow=hidden;rotatable=0;points=[[0,0.5],[1,0.5]];portConstraint=eastwest;glass=0;rounded=0;" parent="267" vertex="1">
                    <mxGeometry y="40" width="300" height="60" as="geometry"/>
                </mxCell>
                <mxCell id="269" value="" style="line;strokeWidth=1;fillColor=none;align=left;verticalAlign=middle;spacingTop=-1;spacingLeft=3;spacingRight=3;rotatable=0;labelPosition=right;points=[];portConstraint=eastwest;strokeColor=inherit;" parent="267" vertex="1">
                    <mxGeometry y="100" width="300" height="8" as="geometry"/>
                </mxCell>
                <mxCell id="270" value="+ transform: boolean&#10;+ getHealth: int&#10;+ setHealth: void&#10;+ incHealth: void&#10;+ getActionPeriod: double&#10;+ getAnimaitonPeriod: double&#10;+ scheduleActions: void&#10;+ executeActivityAction: void" style="text;strokeColor=none;fillColor=none;align=left;verticalAlign=top;spacingLeft=4;spacingRight=4;overflow=hidden;rotatable=0;points=[[0,0.5],[1,0.5]];portConstraint=eastwest;" parent="267" vertex="1">
                    <mxGeometry y="108" width="300" height="132" as="geometry"/>
                </mxCell>
                <mxCell id="275" value="Action&#10;&lt;&lt;abstract&gt;&gt;" style="swimlane;fontStyle=1;align=center;verticalAlign=top;childLayout=stackLayout;horizontal=1;startSize=40;horizontalStack=0;resizeParent=1;resizeParentMax=0;resizeLast=0;collapsible=1;marginBottom=0;fillColor=#008a00;fontColor=#ffffff;strokeColor=#005700;gradientColor=none;swimlaneFillColor=default;rounded=0;shadow=0;glass=0;swimlaneLine=1;" parent="1" vertex="1">
                    <mxGeometry x="2080" y="1574" width="240" height="180" as="geometry"/>
                </mxCell>
                <mxCell id="276" value="- entity: Entity" style="text;strokeColor=none;fillColor=none;align=left;verticalAlign=top;spacingLeft=4;spacingRight=4;overflow=hidden;rotatable=0;points=[[0,0.5],[1,0.5]];portConstraint=eastwest;glass=0;rounded=0;" parent="275" vertex="1">
                    <mxGeometry y="40" width="240" height="30" as="geometry"/>
                </mxCell>
                <mxCell id="277" value="" style="line;strokeWidth=1;fillColor=none;align=left;verticalAlign=middle;spacingTop=-1;spacingLeft=3;spacingRight=3;rotatable=0;labelPosition=right;points=[];portConstraint=eastwest;strokeColor=inherit;" parent="275" vertex="1">
                    <mxGeometry y="70" width="240" height="8" as="geometry"/>
                </mxCell>
                <mxCell id="278" value="+ executeAction(): void&#10;+ getEntity: Entity" style="text;strokeColor=none;fillColor=none;align=left;verticalAlign=top;spacingLeft=4;spacingRight=4;overflow=hidden;rotatable=0;points=[[0,0.5],[1,0.5]];portConstraint=eastwest;" parent="275" vertex="1">
                    <mxGeometry y="78" width="240" height="102" as="geometry"/>
                </mxCell>
                <mxCell id="290" style="edgeStyle=none;html=1;endArrow=doubleBlock;endFill=1;" parent="1" source="279" target="275" edge="1">
                    <mxGeometry relative="1" as="geometry"/>
                </mxCell>
                <mxCell id="279" value="Activity" style="swimlane;fontStyle=1;align=center;verticalAlign=top;childLayout=stackLayout;horizontal=1;startSize=26;horizontalStack=0;resizeParent=1;resizeParentMax=0;resizeLast=0;collapsible=1;marginBottom=0;fillColor=#008a00;fontColor=#ffffff;strokeColor=#005700;gradientColor=none;swimlaneFillColor=default;rounded=0;shadow=0;glass=0;swimlaneLine=1;" parent="1" vertex="1">
                    <mxGeometry x="2280" y="1860" width="310" height="180" as="geometry"/>
                </mxCell>
                <mxCell id="280" value="- world: WorldModel&#10;- imageStore: ImageStore" style="text;strokeColor=none;fillColor=none;align=left;verticalAlign=top;spacingLeft=4;spacingRight=4;overflow=hidden;rotatable=0;points=[[0,0.5],[1,0.5]];portConstraint=eastwest;glass=0;rounded=0;" parent="279" vertex="1">
                    <mxGeometry y="26" width="310" height="64" as="geometry"/>
                </mxCell>
                <mxCell id="281" value="" style="line;strokeWidth=1;fillColor=none;align=left;verticalAlign=middle;spacingTop=-1;spacingLeft=3;spacingRight=3;rotatable=0;labelPosition=right;points=[];portConstraint=eastwest;strokeColor=inherit;" parent="279" vertex="1">
                    <mxGeometry y="90" width="310" height="8" as="geometry"/>
                </mxCell>
                <mxCell id="282" value="+ executeAction: void" style="text;strokeColor=none;fillColor=none;align=left;verticalAlign=top;spacingLeft=4;spacingRight=4;overflow=hidden;rotatable=0;points=[[0,0.5],[1,0.5]];portConstraint=eastwest;" parent="279" vertex="1">
                    <mxGeometry y="98" width="310" height="82" as="geometry"/>
                </mxCell>
                <mxCell id="289" style="edgeStyle=none;html=1;endArrow=doubleBlock;endFill=1;" parent="1" source="283" target="275" edge="1">
                    <mxGeometry relative="1" as="geometry"/>
                </mxCell>
                <mxCell id="283" value="Animation" style="swimlane;fontStyle=1;align=center;verticalAlign=top;childLayout=stackLayout;horizontal=1;startSize=30;horizontalStack=0;resizeParent=1;resizeParentMax=0;resizeLast=0;collapsible=1;marginBottom=0;fillColor=#008a00;fontColor=#ffffff;strokeColor=#005700;gradientColor=none;swimlaneFillColor=default;rounded=0;shadow=0;glass=0;swimlaneLine=1;" parent="1" vertex="1">
                    <mxGeometry x="1850" y="1860" width="310" height="180" as="geometry"/>
                </mxCell>
                <mxCell id="284" value="- repeatCount: int" style="text;strokeColor=none;fillColor=none;align=left;verticalAlign=top;spacingLeft=4;spacingRight=4;overflow=hidden;rotatable=0;points=[[0,0.5],[1,0.5]];portConstraint=eastwest;glass=0;rounded=0;" parent="283" vertex="1">
                    <mxGeometry y="30" width="310" height="60" as="geometry"/>
                </mxCell>
                <mxCell id="285" value="" style="line;strokeWidth=1;fillColor=none;align=left;verticalAlign=middle;spacingTop=-1;spacingLeft=3;spacingRight=3;rotatable=0;labelPosition=right;points=[];portConstraint=eastwest;strokeColor=inherit;" parent="283" vertex="1">
                    <mxGeometry y="90" width="310" height="8" as="geometry"/>
                </mxCell>
                <mxCell id="286" value="- executeAction: void&#10;" style="text;strokeColor=none;fillColor=none;align=left;verticalAlign=top;spacingLeft=4;spacingRight=4;overflow=hidden;rotatable=0;points=[[0,0.5],[1,0.5]];portConstraint=eastwest;" parent="283" vertex="1">
                    <mxGeometry y="98" width="310" height="82" as="geometry"/>
                </mxCell>
                <mxCell id="298" value="" style="edgeStyle=none;html=1;endArrow=none;endFill=1;" parent="1" source="267" target="294" edge="1">
                    <mxGeometry relative="1" as="geometry">
                        <mxPoint x="2550" y="856.6666666666665" as="sourcePoint"/>
                        <mxPoint x="2400" y="790.5376344086021" as="targetPoint"/>
                    </mxGeometry>
                </mxCell>
                <mxCell id="294" value="Schedulable&#10;&lt;&lt;abstract&gt;&gt;" style="swimlane;fontStyle=1;align=center;verticalAlign=top;childLayout=stackLayout;horizontal=1;startSize=44;horizontalStack=0;resizeParent=1;resizeParentMax=0;resizeLast=0;collapsible=1;marginBottom=0;fillColor=#008a00;fontColor=#ffffff;strokeColor=#005700;gradientColor=none;swimlaneFillColor=default;rounded=0;shadow=0;glass=0;swimlaneLine=1;" parent="1" vertex="1">
                    <mxGeometry x="2590" y="500" width="200" height="138" as="geometry"/>
                </mxCell>
                <mxCell id="295" value="." style="text;strokeColor=none;fillColor=none;align=left;verticalAlign=top;spacingLeft=4;spacingRight=4;overflow=hidden;rotatable=0;points=[[0,0.5],[1,0.5]];portConstraint=eastwest;glass=0;rounded=0;" parent="294" vertex="1">
                    <mxGeometry y="44" width="200" height="26" as="geometry"/>
                </mxCell>
                <mxCell id="296" value="" style="line;strokeWidth=1;fillColor=none;align=left;verticalAlign=middle;spacingTop=-1;spacingLeft=3;spacingRight=3;rotatable=0;labelPosition=right;points=[];portConstraint=eastwest;strokeColor=inherit;" parent="294" vertex="1">
                    <mxGeometry y="70" width="200" height="8" as="geometry"/>
                </mxCell>
                <mxCell id="297" value="- scheduleActions(): void" style="text;strokeColor=none;fillColor=none;align=left;verticalAlign=top;spacingLeft=4;spacingRight=4;overflow=hidden;rotatable=0;points=[[0,0.5],[1,0.5]];portConstraint=eastwest;" parent="294" vertex="1">
                    <mxGeometry y="78" width="200" height="60" as="geometry"/>
                </mxCell>
                <mxCell id="299" value="Dude&#10;&lt;&lt;abstract&gt;&gt;" style="swimlane;fontStyle=1;align=center;verticalAlign=top;childLayout=stackLayout;horizontal=1;startSize=40;horizontalStack=0;resizeParent=1;resizeParentMax=0;resizeLast=0;collapsible=1;marginBottom=0;fillColor=#008a00;fontColor=#ffffff;strokeColor=#005700;gradientColor=none;swimlaneFillColor=default;rounded=0;shadow=0;glass=0;swimlaneLine=1;" parent="1" vertex="1">
                    <mxGeometry x="1880" y="1255" width="200" height="260" as="geometry"/>
                </mxCell>
                <mxCell id="300" value="- resourceLimit: int&#10;- resourceCount: int" style="text;strokeColor=none;fillColor=none;align=left;verticalAlign=top;spacingLeft=4;spacingRight=4;overflow=hidden;rotatable=0;points=[[0,0.5],[1,0.5]];portConstraint=eastwest;glass=0;rounded=0;" parent="299" vertex="1">
                    <mxGeometry y="40" width="200" height="44" as="geometry"/>
                </mxCell>
                <mxCell id="301" value="" style="line;strokeWidth=1;fillColor=none;align=left;verticalAlign=middle;spacingTop=-1;spacingLeft=3;spacingRight=3;rotatable=0;labelPosition=right;points=[];portConstraint=eastwest;strokeColor=inherit;" parent="299" vertex="1">
                    <mxGeometry y="84" width="200" height="8" as="geometry"/>
                </mxCell>
                <mxCell id="302" value="+ getResourceLimit: int&#10;+ setResourceLimit: void&#10;+ getResourceCount: int&#10;+ setResourceCount: void&#10;# nextPositionDude: Point&#10;+ parseDude(): void&#10;+ scheduleActions: void" style="text;strokeColor=none;fillColor=none;align=left;verticalAlign=top;spacingLeft=4;spacingRight=4;overflow=hidden;rotatable=0;points=[[0,0.5],[1,0.5]];portConstraint=eastwest;" parent="299" vertex="1">
                    <mxGeometry y="92" width="200" height="168" as="geometry"/>
                </mxCell>
            </root>
        </mxGraphModel>
    </diagram>
</mxfile>